<svg fill="none" xmlns="http://www.w3.org/2000/svg" viewBox="0 0 40 28"><path fill-rule="evenodd" clip-rule="evenodd" d="M27.07.04c-.02.01-.51.05-2 .15-.33.03-.71.07-.83.1-.13.04-.45.09-.72.11a7.55 7.55 0 00-1.08.19l-.58.09c-.18.01-.43.06-.57.1-.13.05-.39.1-.56.12-.18.01-.45.07-.62.13-.16.05-.46.12-.65.14-.2.03-.4.08-.47.11-.06.04-.27.1-.46.13-.2.03-.44.1-.54.14-.11.04-.3.1-.4.11-.12.02-.29.07-.39.12-.1.04-.28.1-.4.12-.12.02-.3.08-.41.13-.11.05-.3.1-.44.13-.13.02-.3.07-.37.1-.07.05-.28.11-.46.15-.19.05-.38.1-.43.15a.87.87 0 01-.3.09c-.11.01-.3.07-.43.13s-.31.12-.42.14c-.1.02-.27.08-.37.12-.1.05-.26.1-.36.12-.1.01-.25.06-.34.11-.09.05-.27.1-.41.14-.15.03-.3.09-.36.12-.06.04-.2.1-.32.12-.13.02-.3.08-.38.12-.08.05-.27.12-.42.15-.15.04-.31.1-.36.13-.05.03-.2.08-.32.1a1.4 1.4 0 00-.35.13c-.08.05-.24.1-.36.13a1.1 1.1 0 00-.32.1c-.06.05-.21.1-.34.14-.14.04-.3.1-.37.14-.07.05-.21.1-.3.11-.1.02-.24.07-.3.11-.08.05-.24.11-.38.15-.13.03-.28.1-.33.13-.06.03-.2.08-.32.1-.11.03-.27.09-.34.13-.06.04-.22.1-.34.13-.13.03-.28.09-.34.13a.79.79 0 01-.26.1 1.8 1.8 0 00-.39.15c-.12.07-.29.13-.37.15-.08.01-.17.05-.2.09a.55.55 0 01-.22.11c-.28.08-.33.22-.12.35.13.08.06.33-.12.41-.62.3-.58.5.1.5.55 0 .67.03.57.16-.03.04-.07.07-.1.07a.85.85 0 00-.2.12c-.17.1-.28.17-.64.36a4.21 4.21 0 01-.53.28c-.18.09-.2.12-.15.24.02.06.11.06.81.04.93-.04.99-.03 1.08.18.06.13.08.15.2.12l.48-.07c.2-.02.42-.07.47-.1.05-.04.23-.1.4-.13s.4-.1.5-.15c.1-.04.31-.1.46-.13.14-.02.31-.07.38-.1.06-.04.26-.1.45-.14.18-.03.4-.1.48-.14.08-.04.25-.09.37-.1.12-.02.3-.07.4-.12.1-.04.3-.1.43-.12l.47-.13c.11-.05.33-.1.49-.13l.4-.1c.05-.04.27-.1.48-.15.21-.04.44-.11.5-.15.08-.03.25-.08.4-.1.14-.03.36-.08.48-.13.11-.05.34-.11.5-.14.17-.02.35-.07.4-.1.05-.04.23-.09.4-.11.18-.03.43-.1.56-.15.54-.23.72-.12.52.32a377.42 377.42 0 01-.37.85c0 .03-.03.1-.07.17-.04.06-.1.2-.13.28l-.15.37c-.05.1-.1.22-.1.25 0 .04-.04.15-.1.25l-.16.4a.82.82 0 01-.12.29.43.43 0 00-.09.2 1.8 1.8 0 01-.14.39c-.07.13-.12.26-.12.3 0 .03-.05.16-.1.28-.13.3-.27.64-.34.88-.04.1-.1.29-.16.4l-.13.34c-.01.07-.07.22-.12.32-.05.1-.1.23-.1.28 0 .05-.04.19-.1.31-.05.13-.13.33-.16.45-.04.12-.09.26-.12.3a.88.88 0 00-.09.24c-.01.08-.07.25-.12.37-.06.12-.12.3-.14.42a1.2 1.2 0 01-.1.3c-.04.04-.09.19-.12.32-.04.13-.11.35-.17.49-.06.14-.1.29-.1.33l-.1.3c-.06.12-.11.26-.11.3 0 .04-.05.2-.12.36-.06.16-.13.36-.14.46a.89.89 0 01-.09.26c-.03.04-.1.23-.14.42-.05.19-.12.38-.15.42-.03.05-.07.2-.1.35-.03.14-.07.29-.1.34-.03.05-.08.2-.12.35-.03.15-.1.34-.14.43-.04.09-.1.24-.1.35-.03.1-.07.26-.11.34-.04.09-.1.28-.14.43-.04.15-.1.31-.13.36-.03.05-.07.2-.1.34l-.1.37c-.04.06-.1.25-.13.42-.04.17-.1.39-.14.48-.04.1-.09.27-.1.37-.02.1-.07.34-.13.53-.16.55-.1.81.13.62.15-.13.18-.06.18.4 0 .5.16.62.3.23.02-.09.06-.16.08-.16.01 0 .07-.1.13-.24.18-.4.29-.21.23.38-.02.2-.05.4-.08.47-.08.23-.13.69-.08.82l.04.12.13-.12c.06-.07.17-.21.22-.32.3-.56.58-.9.76-.9.15 0 .44-.27.44-.42 0-.03.07-.17.15-.33.08-.15.14-.32.14-.37 0-.05.04-.15.08-.23.04-.07.1-.21.13-.31.02-.1.09-.27.14-.38.05-.1.1-.26.12-.34.02-.08.06-.2.1-.27.05-.08.1-.24.14-.37l.12-.32c.03-.05.08-.18.1-.3.04-.1.08-.24.12-.3.03-.05.1-.2.13-.32.05-.13.11-.3.15-.36l.12-.32c.07-.23.2-.58.34-.88.05-.12.1-.24.1-.28 0-.03.05-.16.12-.3.06-.12.12-.25.12-.29 0-.03.06-.18.12-.32.07-.14.13-.28.13-.32 0-.03.05-.18.12-.32.07-.14.12-.28.12-.32 0-.03.05-.14.1-.23.06-.1.1-.2.1-.23s.07-.2.15-.37a2 2 0 00.14-.37c0-.03.03-.1.07-.15.03-.06.1-.2.14-.34.04-.13.12-.3.16-.37.04-.07.09-.2.1-.26a.85.85 0 01.11-.24.46.46 0 00.08-.17c0-.03.06-.19.14-.36l.15-.35a83.96 83.96 0 00.8-1.85 62.46 62.46 0 011.21-2.66 3.84 3.84 0 01.22-.45 5.83 5.83 0 00.27-.55l.08-.17.11-.24.36-.7c.22-.43.31-.69.46-1.31a2.4 2.4 0 00-.26-.86c-.12-.23-.09-.25.43-.3.22-.03.47-.08.55-.11.08-.04.4-.1.7-.13.32-.04.7-.1.86-.15.16-.04.5-.1.74-.1a26.23 26.23 0 016.9-.1c1.38.23 2.08-.2 2.28-1.38a5.97 5.97 0 00-.63-2.26 2.31 2.31 0 00-1.02-.98 13.9 13.9 0 00-3-.15zm2.4 5.77c-.06.18-.63.7-.77.7-.18 0-.57.55-.95 1.34a5.4 5.4 0 01-.3.57c-.07.19-.13.3-.24.53a123.16 123.16 0 00-1.41 2.95c0 .03-.04.1-.08.15-.04.06-.1.18-.13.27-.02.1-.09.25-.14.34l-.12.3a.7.7 0 01-.1.23.7.7 0 00-.1.23l-.13.3a1.5 1.5 0 00-.14.33c-.03.1-.08.24-.13.31a.57.57 0 00-.08.2c0 .04-.05.19-.12.33-.06.13-.14.33-.16.43-.03.1-.07.19-.09.2-.02.02-.07.15-.12.3a3.1 3.1 0 01-.16.43c-.05.1-.09.2-.09.24 0 .05-.03.15-.07.24l-.17.48c-.1.31-.1.32-.24.32-.16 0-.18-.04-.25-.5a2.32 2.32 0 00-.12-.43c-.04-.1-.1-.29-.1-.41a2.06 2.06 0 00-.13-.45c-.05-.12-.1-.31-.12-.43-.02-.12-.06-.3-.1-.4-.05-.09-.1-.25-.1-.35a2.95 2.95 0 00-.2-.68 2.18 2.18 0 01-.1-.4c-.2-1.1-.84-1.64-1.41-1.2a3.15 3.15 0 00-.78.6c-.27.31-.4.62-.41 1.01-.02.3-.04.4-.11.5a.82.82 0 00-.12.24c-.01.07-.07.25-.13.4-.12.29-.2.53-.34.96l-.16.45c-.04.1-.1.28-.12.38-.03.1-.07.23-.1.28-.03.04-.09.2-.13.34-.03.14-.09.3-.12.35-.03.05-.08.18-.1.3l-.11.3c-.03.04-.1.2-.13.36-.04.15-.12.35-.16.44-.05.1-.1.24-.1.32a1.7 1.7 0 01-.14.36c-.05.11-.1.25-.1.3a1 1 0 01-.09.28l-.14.4-.15.47c-.06.14-.1.3-.1.33l-.1.32c-.21.5-.19.79.05.84.12.02.13.03.12.23-.01.37 0 .48.05.48.08 0 .3-.22.38-.38a.4.4 0 01.16-.18c.06-.02.1-.08.12-.13 0-.05.03-.1.06-.11.07-.03.07.15 0 .38-.04.1-.09.36-.11.57-.03.2-.08.48-.12.6-.13.37.13.49.32.13.23-.42.59-.82.8-.88.2-.05.37-.18.41-.31l.13-.25c.05-.08.12-.23.15-.33l.12-.24a.53.53 0 00.1-.22c0-.1.05-.21.1-.27.03-.06.1-.2.13-.32s.1-.28.15-.37a.63.63 0 00.08-.21c0-.04.06-.18.13-.32.06-.13.12-.27.12-.3 0-.02.04-.13.1-.24l.14-.35c.03-.1.08-.22.12-.28a2 2 0 00.13-.32c.14-.42.4-.46.47-.06.01.09.08.3.15.48.06.17.12.35.12.4 0 .04.04.15.08.25.05.09.1.26.13.38.02.12.08.28.11.36.04.08.1.28.15.43.04.15.08.3.1.32.02.02.08.2.12.38.05.19.1.36.13.39.02.02.07.17.1.32.04.15.1.32.13.37.03.05.08.2.1.32.03.12.09.31.14.43.05.11.12.3.14.43.03.13.06.25.08.26.02.01.08.15.13.32.1.32.17.4.47.49.1.03.19.1.24.18.13.2.2.16.23-.12.03-.22.1-.42.15-.42l.1.2c.05.1.1.23.14.26l.12.27c.07.2.11.23.24.18.05-.02.06-.1.04-.49l-.02-.46.13-.16c.15-.18.15-.5 0-.96-.2-.54-.2-.86-.02-1.36.04-.1.09-.33.12-.51s.08-.39.12-.45c.03-.07.07-.24.09-.38.02-.14.07-.39.13-.55l.14-.51c.02-.12.07-.27.1-.33s.09-.28.14-.49c.05-.2.1-.4.13-.43.02-.03.06-.2.1-.36.03-.18.08-.34.1-.37.03-.03.08-.2.12-.38.05-.18.11-.37.14-.42.03-.05.08-.2.1-.34.03-.14.09-.33.13-.4.04-.09.1-.26.12-.4.03-.12.09-.3.13-.38.04-.08.09-.24.11-.36.03-.12.1-.3.15-.42a1 1 0 00.1-.3.8.8 0 01.09-.26l.13-.36c.02-.1.07-.26.11-.34l.14-.37.14-.38a.8.8 0 00.1-.23c0-.04.05-.19.11-.34.07-.15.13-.29.13-.32 0-.02.05-.16.12-.3.07-.14.12-.28.12-.31 0-.03.05-.17.12-.3l.15-.37a.54.54 0 01.08-.2c.03-.03.09-.16.13-.27.03-.12.1-.27.14-.33a.44.44 0 00.08-.17c0-.03.05-.17.12-.31a8.82 8.82 0 00.51-1.2c.08-.17.15-.33.15-.36 0-.02.03-.1.07-.16.04-.06.1-.23.14-.38l.06-.28-.1-.03c-.13-.06-.18-.18-.13-.32.06-.17.05-.2-.1-.2-.1 0-.15.04-.24.14-.2.26-.26-.01-.09-.44.12-.3.13-.64.01-.67-.04 0-.08.03-.1.07zm3.05 4.87c-.17.03-.63.26-.66.32l-.16.18c-.07.08-.12.17-.12.2 0 .05-.05.17-.1.28a9.7 9.7 0 00-.5 1.11.59.59 0 00-.08.17l-.17.4c-.08.17-.14.33-.14.36 0 .03-.04.14-.1.25a5.84 5.84 0 00-.43 1.06l-.17.4c-.08.24-.25.47-.34.47-.03 0-.1.04-.16.09-.06.05-.18.11-.27.15-.1.03-.22.1-.27.14a.66.66 0 01-.24.12.51.51 0 00-.19.08l-.25.16c-.64.34-.97.81-.8 1.16.03.07.1.2.12.28.09.21.47.61.78.8.18.12.2.28.07.5-.04.07-.09.2-.1.27l-.15.4c-.07.15-.12.3-.12.34 0 .05-.05.17-.1.28a.96.96 0 00-.1.28c0 .04-.05.18-.11.32-.06.13-.13.35-.16.49a1.5 1.5 0 01-.12.34c-.13.2-.16.64-.05.72l.13.12c.03.02.05.16.05.3 0 .37.06.4.28.14.1-.11.2-.26.23-.32.15-.37.19.04.05.58-.14.59-.13.93.04.86.04-.01.09-.07.1-.14a.77.77 0 01.13-.2l.27-.33c.16-.21.21-.25.32-.25.16 0 .36-.21.49-.51l.13-.26a.89.89 0 00.1-.25c.03-.1.08-.24.12-.3.04-.06.1-.19.13-.28.02-.1.08-.24.12-.32.2-.4.37-.8.4-.9a.73.73 0 01.1-.2.38.38 0 00.07-.17c0-.03.1-.28.23-.56.46-.98.74-1.62.78-1.74.04-.14.32-.5.46-.58l.12-.07.12.16c.07.09.17.26.23.37l.23.45a27.6 27.6 0 01.72 1.45c.06.13.13.25.15.26.02.01.06.1.1.2.03.11.09.23.12.26l.27.53c.25.52.35.72.7 1.37l.34.72c.06.13.13.24.15.24.01 0 .05.07.08.16s.1.24.17.35c.06.1.11.2.11.23 0 .02.05.1.1.17.06.07.1.15.1.18 0 .1.13.17.26.16a.8.8 0 01.54.25l.06.1.05-.12c.02-.07.04-.2.04-.3 0-.21.17-.3.23-.12.06.16.4.6.48.6a.1.1 0 01.1.07c0 .03.03.06.05.06.06 0 .05-.27-.02-.43-.11-.3-.13-.79-.02-.94.09-.12.09-.14.02-.28a10.54 10.54 0 00-.48-1.19 8.29 8.29 0 01-.36-.86.74.74 0 00-.1-.2.65.65 0 01-.1-.22c0-.03-.06-.17-.12-.3a15.37 15.37 0 01-.5-1.08l-.14-.36a.73.73 0 00-.1-.23 7.67 7.67 0 00-.5-1.08 1.4 1.4 0 01-.12-.29c0-.03-.03-.1-.08-.16-.04-.07-.1-.19-.12-.28l-.15-.34-.14-.34c-.03-.09-.06-.16-.08-.16-.22 0-.07-.5.18-.6a.81.81 0 00.22-.11c.03-.03.13-.1.22-.14.3-.15.54-.3.65-.38l.28-.17.4-.22c.1-.07.28-.17.38-.22.1-.05.2-.11.22-.14.01-.03.08-.07.14-.09a.8.8 0 00.24-.12c.07-.06.19-.13.27-.17.07-.04.26-.14.4-.24l.43-.26c.15-.08.3-.17.73-.46.17-.11.19-.19.07-.3-.1-.09-.1-.11.05-.25.17-.16.08-.27-.19-.26-.27.02-.36-.1-.16-.19a.53.53 0 00.16-.1c.06-.07.55-.48.6-.5.03 0 .04-.04.02-.08-.04-.1-.3-.1-.52 0-.32.15-.45.16-.72.04-.24-.1-.25-.1-.35-.03-.05.04-.2.11-.32.15-.13.04-.27.11-.33.16-.05.04-.12.08-.15.08s-.18.06-.33.15c-.15.08-.3.14-.34.14-.04 0-.11.04-.17.1a.58.58 0 01-.2.1l-.36.17c-.14.08-.28.15-.31.15-.03 0-.08.02-.1.06a.49.49 0 01-.21.1c-.09.03-.22.1-.3.15a.95.95 0 01-.27.13.65.65 0 00-.22.1c-.05.05-.18.11-.28.16-.1.04-.2.1-.24.13-.2.17-.48.1-.36-.1a4 4 0 00.18-.33l.13-.28c.03-.03.08-.15.13-.25l.15-.32c.14-.27.1-.92-.07-1.12-.31-.37-1.18-.58-1.8-.44zm-23.56.6c-.06.02-.3.05-.53.08a2.2 2.2 0 00-.55.13c-.07.04-.22.1-.33.13-.12.03-.27.1-.35.14l-.33.14c-.1.04-.21.1-.25.13a.7.7 0 01-.23.1.85.85 0 00-.27.16c-.06.05-.14.1-.17.1a.67.67 0 00-.2.12.7.7 0 01-.22.13c-.02 0-.1.05-.17.11a10.06 10.06 0 00-1.28 1c-.79.86-.9 1.85-.33 2.76.25.39.8.87 1.24 1.09.1.05.23.13.29.18l.32.22.36.24c.08.06.16.12.19.12.02 0 .12.06.22.14.5.39.5.4-.06.97a18.67 18.67 0 01-2.78 2.4 34.77 34.77 0 00-1.1.75.59.59 0 00-.16.1.9.9 0 01-.23.14.55.55 0 00-.17.08l-.26.17c-.4.23-.58.33-.66.4a.88.88 0 01-.2.13c-.1.04-.1.06-.1.34 0 .27-.01.3-.13.38-.2.16-.12.4.1.3.13-.05.45-.04.5.02.06.05-.04.2-.13.2-.02 0-.09.05-.14.1-.05.07-.12.12-.14.12-.06 0-.44.29-.6.46-.25.26-.06.33.42.17.44-.15.74-.16.9-.02.15.13.29.14.5.03.07-.05.23-.11.34-.14.1-.03.22-.07.26-.1.03-.03.16-.1.28-.15.13-.05.26-.12.3-.15a.78.78 0 01.2-.1c.09-.03.17-.07.18-.1l.26-.14c.13-.06.24-.13.25-.15a.7.7 0 01.17-.11c.47-.26.65-.36.65-.4l.16-.09c.1-.03.2-.1.26-.15.05-.06.1-.1.13-.1s.12-.06.2-.13a.67.67 0 01.22-.13c.02 0 .07-.03.1-.07.03-.03.2-.17.39-.3a7.86 7.86 0 001.1-.87c.1-.06.47-.4.74-.65.07-.08.3-.29.5-.47.87-.82 1.1-1.14 1.17-1.6.05-.36 0-.88-.12-1.06l-.15-.26c-.14-.3-.55-.79-.9-1.08L8.35 17a.62.62 0 00-.2-.13 8.02 8.02 0 00-.96-.7 7.94 7.94 0 01-.66-.46c-.26-.19-.54-.48-.56-.6-.05-.18.83-.87 1.57-1.23.1-.05.2-.12.24-.15a.81.81 0 01.23-.1l.28-.14a.51.51 0 01.18-.08c.03 0 .19-.05.35-.12.16-.07.38-.14.48-.15.32-.05.4-.1.4-.25 0-.12.17-.33.26-.33.05 0 .04-.15-.01-.2-.03-.03-.1-.06-.17-.06-.12 0-.18-.06-.1-.1.04-.01.09-.07.1-.12.03-.08.1-.12.24-.16.37-.1.4-.11.42-.2.02-.15-.06-.2-.41-.23a1.3 1.3 0 01-.55-.14c-.2-.12-.33-.13-.51-.07z" fill="#60A1F1"/></svg>