<svg width="15" height="14" viewBox="0 0 15 14" fill="none" xmlns="http://www.w3.org/2000/svg">
<path d="M10.0376 8.30758C11.7518 5.9345 11.1785 2.64849 8.75793 0.968344C6.33739 -0.711799 2.98564 -0.150145 1.27189 2.22333C-0.441857 4.59641 0.131031 7.88202 2.55199 9.56217C4.27966 10.7614 6.56384 10.8537 8.38611 9.79863L12.3455 13.6571C12.7731 14.0984 13.4844 14.116 13.9344 13.6969C14.3844 13.2782 14.4025 12.5808 13.9754 12.1396C13.9618 12.1255 13.9487 12.1127 13.9344 12.0994L10.0376 8.30758ZM5.65148 8.66729C3.73871 8.6677 2.18794 7.14854 2.18671 5.27328C2.1863 3.39803 3.73585 1.87767 5.64902 1.87687C7.55933 1.87606 9.10928 3.39281 9.11297 5.26566C9.11625 7.14131 7.56752 8.66408 5.65394 8.66729C5.65312 8.66729 5.65271 8.66729 5.65148 8.66729Z" fill="#A0AEC0"/>
</svg>
